<svg width="36" height="50" viewBox="0 0 36 50" fill="none" xmlns="http://www.w3.org/2000/svg">
<path fill-rule="evenodd" clip-rule="evenodd" d="M0 18.0726C0 8.09194 8.05911 0 17.9993 0C27.9409 0 36 8.09194 36 18.0726C36 26.8625 29.7496 34.1853 21.4692 35.8091L19.1796 42.1448C18.7795 43.2515 17.2205 43.2515 16.8204 42.1448L14.5308 35.8091C6.25038 34.1853 0 26.8625 0 18.0726ZM25.3249 47.8777C25.3249 49.0498 22.0451 50 17.9992 50C13.9534 50 10.6735 49.0498 10.6735 47.8777C10.6735 46.7055 13.9534 45.7553 17.9992 45.7553C22.0451 45.7553 25.3249 46.7055 25.3249 47.8777Z" fill="#FED801"/>
</svg>
